<svg version="1.1" viewBox="0 0 653 95.1" xmlns="http://www.w3.org/2000/svg">
  <path d="m305 68.4 28.7-64.9h-16.3l-20.2 46.7z" fill="#ffffff"/>
  <g transform="translate(-95.2 -251)" fill="#ffffff">
    <path d="m140 269c8.56 0 14.9 2.62 20.7 8.51l1.55 1.59 6.48-14.2-0.805-0.746c-6.82-6.34-17-10.1-27.2-10.1-24.9 0-45.1 19.9-45.1 44.4s20.2 44.4 45.1 44.4c10.1 0 20.3-3.83 27.2-10.2l0.803-0.744-6.49-14.3-1.55 1.62c-5.71 5.96-12.1 8.62-20.7 8.62-16.2 0-29.4-13.2-29.4-29.4 2e-3 -16.2 13.2-29.4 29.4-29.4zm185 40.8-57.8-59.3v20.8l72.8 74.3v-90.9h-15zm24.5-55.8 40.2 91 7.85-17.8-31.8-73.2zm228 28.3c0-18-12.2-28.3-33.4-28.3h-27.4v15h31.5c4.3 0 14.3 1.37 14.3 14 0 12.5-10.2 13.8-14.5 13.8h-31.3v43.9h15v-28.9h10.8l20.8 28.9h17.7l-22-30.7c11.5-4.02 18.6-14.5 18.6-27.7zm105 58.4h66.3v-15l-66.3-0.036zm0-50.7h47.8v14.8h-47.8zm0-36h66.3v15h-66.3zm-11.1 39-46.5-0.133v15h46l0.217-1.26c0.463-2.72 0.696-5.48 0.696-8.22 0-1.54-0.146-3.04-0.258-4.03zm-232 47.7h66.3v-15l-66.3-0.036zm0-50.7h47.8v14.8h-47.8zm0-36h66.3v15h-66.3z"/>
    <path d="m209 328c-14.8-1.68-25.9-14.2-25.9-29.2 0-15 11.1-27.5 25.9-29.2v-15.1l-0.114 0.01c-22.9 1.81-40.8 21.2-40.8 44.2 0 23 17.9 42.4 40.8 44.2l0.114 8e-3zm6.95-73.4-0.119-0.01v15.1c14.8 1.68 25.9 14.2 25.9 29.2 0 15-11.1 27.5-25.9 29.2v15.1l0.119-8e-3c22.9-1.81 40.8-21.2 40.8-44.2 0-23-17.9-42.4-40.8-44.2zm437 60.6c-4.73 8.23-13.2 13-23.4 13-16.2 0-29.4-13.2-29.4-29.4 0-16.2 13.2-29.4 29.4-29.4 10.1 0 18.9 5.28 23.6 14.1l0.578 1.1 15-4.34-0.841-1.64c-7.84-15.4-21.8-24.2-38.3-24.2-24.5 0-44.4 19.9-44.4 44.4s19.9 44.4 44.4 44.4c18.1 0 33.4-10.9 39.5-28h-16.2v4e-3h-4e-3zm-386-33.8v60.6h15v-45.1z"/>
  </g>
</svg>
