<svg xmlns="http://www.w3.org/2000/svg" viewBox="0 0 841.89 595.28">
  <path fill="#EB2A91" d="M400.526 319.034l28.674-64.905h-16.284l-20.208 46.678z" />
  <g fill="#542E89">
    <path
      d="M139.579 269.122c8.561 0 14.946 2.624 20.705 8.506l1.55 1.588 6.481-14.226-.805-.746c-6.822-6.337-16.985-10.118-27.184-10.118-24.871 0-45.107 19.897-45.107 44.354s20.236 44.357 45.107 44.357c10.114 0 20.277-3.83 27.186-10.244l.803-.744-6.492-14.252-1.552 1.623c-5.71 5.957-12.095 8.621-20.694 8.621-16.189 0-29.363-13.179-29.363-29.365.002-16.184 13.176-29.354 29.365-29.354zM324.341 309.933l-57.781-59.271v20.845l72.774 74.285V254.87h-14.993zM348.823 254.129l40.188 90.958 7.849-17.756-31.754-73.202zM576.712 282.423c0-17.983-12.172-28.295-33.398-28.295h-27.421v14.995h31.532c4.295 0 14.289 1.371 14.289 14.046 0 12.452-10.172 13.799-14.54 13.799h-31.281v43.885h14.995v-28.891h10.772l20.798 28.891h17.689l-22.044-30.703c11.538-4.017 18.609-14.452 18.609-27.727zM682.089 340.853h66.274v-15.002l-66.274-.036zM682.089 290.159h47.778v14.827h-47.778zM682.089 254.129h66.271v14.993h-66.271zM670.98 293.108l-46.466-.133v15.003h45.96l.217-1.265c.463-2.722.696-5.485.696-8.225 0-1.542-.146-3.041-.258-4.027l-.149-1.353zM439.208 340.853h66.277v-15.002l-66.277-.036zM439.208 290.159h47.781v14.827h-47.781zM439.208 254.129h66.277v14.993h-66.277z"
    />
    <path
      d="M208.864 327.624c-14.805-1.682-25.946-14.182-25.946-29.16 0-14.977 11.143-27.483 25.946-29.163v-15.054l-.114.01c-22.897 1.806-40.833 21.226-40.833 44.207 0 22.982 17.938 42.4 40.833 44.209l.114.008v-15.057zM215.81 254.257l-.119-.01v15.056c14.805 1.678 25.947 14.185 25.947 29.163 0 14.98-11.143 27.484-25.947 29.162v15.057l.119-.008c22.896-1.809 40.828-21.227 40.828-44.209 0-22.984-17.936-42.405-40.828-44.211zM652.376 314.808c-4.727 8.229-13.19 13.043-23.35 13.043-16.187 0-29.365-13.178-29.365-29.365 0-16.188 13.175-29.363 29.365-29.363 10.082 0 18.889 5.28 23.559 14.131l.578 1.097 15.041-4.343-.841-1.641c-7.843-15.403-21.815-24.241-38.337-24.241-24.457 0-44.356 19.899-44.356 44.356s19.899 44.354 44.356 44.354c18.114 0 33.352-10.912 39.528-28.031H652.38v.004h-.004zM266.56 281.034v60.555h14.995v-45.131z"
    />
  </g>
</svg>
