<svg width="99" height="91" viewBox="0 0 100 100" xmlns="http://www.w3.org/2000/svg">
  <path
    d="M98.09 47.68C98.09 21.35 76.16 0 49.12 0S.14 21.35.14 47.68c0 4.27.59 8.41 1.67 12.34h33.81l.01-.03c3.48-5.07 8.18-8.19 13.36-8.19 5.23 0 9.97 3.18 13.46 8.33l1.02 3.77.03.03h-.02l1.58 5.84.37 1.31c-.21-.3-.42-.59-.64-.88-.04-.05-.07-.09-.1-.14-.21-.27-.42-.54-.63-.8-.04-.05-.08-.1-.13-.15-.22-.26-.43-.51-.66-.76-.04-.04-.08-.08-.11-.12-.23-.26-.47-.51-.7-.75l-.06-.06c-.51-.52-1.04-1.02-1.58-1.48l-.03-.03c-.27-.23-.54-.45-.81-.66-.02-.01-.03-.03-.05-.04-.28-.21-.55-.42-.83-.62-3.05-2.14-6.43-3.34-10-3.34-6.33 0-12.07 3.76-16.37 9.88H6.48c2.05 3.53 4.56 6.77 7.43 9.67h16.16c3.36-4.85 7.5-8.44 12.11-10.26.01 0 .01 0 .01-.01.55-.22 1.1-.41 1.66-.57.26-.08.53-.15.79-.22l.11-.03c.25-.06.5-.12.76-.17.02 0 .04-.01.06-.01.28-.05.56-.1.84-.14.02 0 .04 0 .06-.01l.73-.09c.07-.01.15-.02.23-.02.2-.02.4-.03.6-.04.08 0 .15-.01.23-.01.27-.01.54-.02.81-.02s.54.01.81.02c.08 0 .16.01.24.01.2.01.4.02.59.04.08.01.16.01.24.02.23.02.46.05.69.08.04.01.07.01.11.01.28.04.55.09.82.14.03.01.06.01.09.02.24.05.48.1.72.16.05.01.1.03.15.04.24.06.48.12.71.19.03.01.06.02.09.02.55.16 1.08.35 1.62.56.01.01.02.01.03.01 4.64 1.83 8.81 5.47 12.19 10.37l2.64 9.44.01.04.02.02c.01-.01.03-.01.04-.02C87.01 82.6 98.09 66.4 98.09 47.68zm-48.88-3.13c-4.32 0-8.23 2.59-11.14 6.79l2.04-7.52c2.78-3.04 6-4.86 9.47-4.86 2.91 0 5.65 1.31 8.1 3.51l2.25 8.28c-2.86-3.85-6.61-6.2-10.72-6.2zM71.56 5.28A49.47 49.47 0 0187.48 18l-30.7 8.56a9.794 9.794 0 00-2.08-2.63L71.56 5.28zM49.35 32.84c-2.46 0-4.79.96-6.94 2.57l1.35-5h.02c.59-2.74 2.68-4.81 5.29-4.81 2.62 0 4.71 2.08 5.29 4.81h.02l1.19 4.4c-1.95-1.27-4.04-1.97-6.22-1.97z"
    fill="#fff"
  />
</svg>
