<svg width="60" height="50" viewBox="0 0 60 50" fill="none" xmlns="http://www.w3.org/2000/svg">
  <g clip-path="url(#clip0_103_196)">
    <path
      d="M0.4729 11.0612L0.4729 38.8884C0.4729 44.5681 4.97001 49.1724 10.5175 49.1724H49.514C55.0615 49.1724 59.5586 44.5681 59.5586 38.8884V11.0612C59.5586 5.38156 55.0615 0.777275 49.514 0.777275H10.5175C4.97001 0.777275 0.4729 5.38156 0.4729 11.0612Z"
      fill="#111111"
    />
    <path
      d="M0.4729 11.0612L0.4729 38.8884C0.4729 44.5681 4.97001 49.1724 10.5175 49.1724H49.514C55.0615 49.1724 59.5586 44.5681 59.5586 38.8884V11.0612C59.5586 5.38156 55.0615 0.777275 49.514 0.777275H10.5175C4.97001 0.777275 0.4729 5.38156 0.4729 11.0612Z"
      fill="url(#paint0_linear_103_196)"
    />
    <path
      d="M15.2443 12.8763C15.2443 11.2058 13.9216 9.85156 12.29 9.85156C10.6584 9.85156 9.33569 11.2058 9.33569 12.8763C9.33569 14.5467 10.6584 15.9009 12.29 15.9009C13.9216 15.9009 15.2443 14.5467 15.2443 12.8763Z"
      fill="url(#paint1_linear_103_196)"
    />
    <path
      d="M15.2443 12.8763C15.2443 11.2058 13.9216 9.85156 12.29 9.85156C10.6584 9.85156 9.33569 11.2058 9.33569 12.8763C9.33569 14.5467 10.6584 15.9009 12.29 15.9009C13.9216 15.9009 15.2443 14.5467 15.2443 12.8763Z"
      fill="url(#paint2_linear_103_196)"
    />
    <path
      d="M15.2443 12.8763C15.2443 11.2058 13.9216 9.85156 12.29 9.85156C10.6584 9.85156 9.33569 11.2058 9.33569 12.8763C9.33569 14.5467 10.6584 15.9009 12.29 15.9009C13.9216 15.9009 15.2443 14.5467 15.2443 12.8763Z"
      fill="url(#paint3_linear_103_196)"
    />
    <path
      d="M15.2443 37.0545C15.2443 35.384 13.9216 34.0298 12.29 34.0298C10.6584 34.0298 9.33569 35.384 9.33569 37.0545C9.33569 38.725 10.6584 40.0792 12.29 40.0792C13.9216 40.0792 15.2443 38.725 15.2443 37.0545Z"
      fill="url(#paint4_linear_103_196)"
    />
    <path
      d="M50.6957 24.9749C50.6957 23.3044 49.373 21.9502 47.7414 21.9502C46.1098 21.9502 44.7871 23.3044 44.7871 24.9749C44.7871 26.6454 46.1098 27.9996 47.7414 27.9996C49.373 27.9996 50.6957 26.6454 50.6957 24.9749Z"
      fill="url(#paint5_linear_103_196)"
    />
    <path
      d="M50.6957 24.9749C50.6957 23.3044 49.373 21.9502 47.7414 21.9502C46.1098 21.9502 44.7871 23.3044 44.7871 24.9749C44.7871 26.6454 46.1098 27.9996 47.7414 27.9996C49.373 27.9996 50.6957 26.6454 50.6957 24.9749Z"
      fill="url(#paint6_linear_103_196)"
    />
    <path
      d="M47.7414 9.85156H24.1071C22.4755 9.85156 21.1528 11.2058 21.1528 12.8763C21.1528 14.5467 22.4755 15.9009 24.1071 15.9009H47.7414C49.373 15.9009 50.6957 14.5467 50.6957 12.8763C50.6957 11.2058 49.373 9.85156 47.7414 9.85156Z"
      fill="url(#paint7_linear_103_196)"
    />
    <path
      d="M47.7414 34.0298H24.1071C22.4755 34.0298 21.1528 35.384 21.1528 37.0545C21.1528 38.725 22.4755 40.0792 24.1071 40.0792H47.7414C49.373 40.0792 50.6957 38.725 50.6957 37.0545C50.6957 35.384 49.373 34.0298 47.7414 34.0298Z"
      fill="url(#paint8_linear_103_196)"
    />
    <path
      d="M35.9243 21.9502H12.29C10.6584 21.9502 9.33569 23.3044 9.33569 24.9749C9.33569 26.6454 10.6584 27.9996 12.29 27.9996H35.9243C37.5559 27.9996 38.8786 26.6454 38.8786 24.9749C38.8786 23.3044 37.5559 21.9502 35.9243 21.9502Z"
      fill="url(#paint9_linear_103_196)"
    />
  </g>
  <defs>
    <linearGradient
      id="paint0_linear_103_196"
      x1="30.0158"
      y1="0.777281"
      x2="30.0158"
      y2="49.2226"
      gradientUnits="userSpaceOnUse"
    >
      <stop stop-color="#1D273D" />
      <stop offset="1" stop-color="#0D0F13" />
    </linearGradient>
    <linearGradient
      id="paint1_linear_103_196"
      x1="10.2459"
      y1="15.8595"
      x2="14.3824"
      y2="10.4578"
      gradientUnits="userSpaceOnUse"
    >
      <stop stop-color="#4462FE" />
      <stop offset="1" stop-color="#7D69FA" />
    </linearGradient>
    <linearGradient
      id="paint2_linear_103_196"
      x1="9.85493"
      y1="15.9039"
      x2="14.8177"
      y2="15.6554"
      gradientUnits="userSpaceOnUse"
    >
      <stop stop-color="#3757FD" />
      <stop offset="1" stop-color="#6980FA" />
    </linearGradient>
    <linearGradient
      id="paint3_linear_103_196"
      x1="9.85493"
      y1="15.9039"
      x2="14.8177"
      y2="15.6554"
      gradientUnits="userSpaceOnUse"
    >
      <stop stop-color="#2447FF" />
      <stop offset="1" stop-color="#6980FA" />
    </linearGradient>
    <linearGradient
      id="paint4_linear_103_196"
      x1="10.1713"
      y1="39.0919"
      x2="14.2121"
      y2="34.9102"
      gradientUnits="userSpaceOnUse"
    >
      <stop stop-color="#BC3EE6" />
      <stop offset="1" stop-color="#D972F1" />
    </linearGradient>
    <linearGradient
      id="paint5_linear_103_196"
      x1="45.9808"
      y1="26.9805"
      x2="49.717"
      y2="23.0971"
      gradientUnits="userSpaceOnUse"
    >
      <stop stop-color="#29BDFF" />
      <stop offset="1" stop-color="#96E7FB" />
    </linearGradient>
    <linearGradient
      id="paint6_linear_103_196"
      x1="45.2616"
      y1="27.9582"
      x2="50.3929"
      y2="27.7177"
      gradientUnits="userSpaceOnUse"
    >
      <stop stop-color="#23BBFF" />
      <stop offset="1" stop-color="#85E7FF" />
    </linearGradient>
    <linearGradient
      id="paint7_linear_103_196"
      x1="23.5252"
      y1="15.8595"
      x2="47.8996"
      y2="10.1477"
      gradientUnits="userSpaceOnUse"
    >
      <stop stop-color="#23BBFF" />
      <stop offset="1" stop-color="#85E7FF" />
    </linearGradient>
    <linearGradient
      id="paint8_linear_103_196"
      x1="23.749"
      y1="40.0821"
      x2="47.1583"
      y2="34.2221"
      gradientUnits="userSpaceOnUse"
    >
      <stop stop-color="#2447FF" />
      <stop offset="1" stop-color="#6980FA" />
    </linearGradient>
    <linearGradient
      id="paint9_linear_103_196"
      x1="13.3046"
      y1="28.0469"
      x2="35.6719"
      y2="22.1856"
      gradientUnits="userSpaceOnUse"
    >
      <stop stop-color="#6634FF" />
      <stop offset="1" stop-color="#9C6DFF" />
    </linearGradient>
    <clipPath id="clip0_103_196">
      <rect width="59.0857" height="48.3951" fill="white" transform="translate(0.4729 0.777344)" />
    </clipPath>
  </defs>
</svg>
