<svg width="791" height="296" viewBox="0 0 791 296" fill="none" xmlns="http://www.w3.org/2000/svg" class="logo_animado">
<g clip-path="url(#clip0_406_2)">
<path d="M45.7049 279.702H41.53V270.704C39.7462 273.801 37.14 276.339 34.002 278.037C30.7723 279.779 27.1566 280.676 23.4896 280.644C20.7153 280.701 17.9585 280.19 15.3873 279.144C12.8161 278.097 10.4843 276.536 8.534 274.556C4.57628 270.238 2.37988 264.586 2.37988 258.72C2.37988 252.855 4.57628 247.203 8.534 242.885C10.4794 240.895 12.8092 239.324 15.3807 238.269C17.9523 237.213 20.7116 236.695 23.4896 236.746C27.1594 236.708 30.7781 237.611 34.002 239.37C37.1437 241.063 39.7511 243.603 41.53 246.703V217.976H45.7049V279.702ZM36.3158 271.814C38.8955 269.309 40.6771 266.093 41.4353 262.573C42.1934 259.052 41.8941 255.385 40.5752 252.035C39.2563 248.685 36.977 245.803 34.0254 243.752C31.0738 241.701 27.5825 240.574 23.9926 240.514C21.6892 240.468 19.4006 240.892 17.2652 241.759C15.1297 242.627 13.1918 243.919 11.5687 245.559C8.3052 249.168 6.49747 253.865 6.49747 258.737C6.49747 263.609 8.3052 268.307 11.5687 271.915C14.908 275.126 19.359 276.911 23.9843 276.895C28.6096 276.88 33.0485 275.064 36.3661 271.831L36.3158 271.814Z" fill="#3A3356"/>
<path d="M71.6088 222.685C71.9146 222.988 72.1557 223.349 72.3171 223.749C72.4786 224.148 72.557 224.576 72.5477 225.006C72.5571 225.429 72.4786 225.85 72.3169 226.241C72.1552 226.632 71.914 226.985 71.6088 227.277C71.3004 227.571 70.9374 227.801 70.5404 227.954C70.1434 228.107 69.7201 228.18 69.295 228.168C68.4098 228.2 67.5479 227.88 66.8974 227.277C66.5922 226.985 66.3511 226.632 66.1894 226.241C66.0277 225.85 65.9491 225.429 65.9585 225.006C65.9492 224.576 66.0276 224.148 66.1891 223.749C66.3505 223.349 66.5916 222.988 66.8974 222.685C67.2155 222.378 67.5911 222.136 68.0025 221.974C68.414 221.813 68.8532 221.734 69.295 221.743C69.7239 221.737 70.1498 221.817 70.5473 221.979C70.9447 222.141 71.3056 222.381 71.6088 222.685V222.685ZM67.2496 279.702V237.772H71.3405V279.702H67.2496Z" fill="#3A3356"/>
<path d="M130.827 276.708C130.931 279.318 130.483 281.921 129.512 284.344C128.541 286.768 127.069 288.957 125.194 290.769C121.164 294.376 115.885 296.253 110.49 296C100.061 296 93.1927 292.076 89.8842 284.227L93.5728 282.007C96.5907 288.734 102.23 292.098 110.49 292.098C112.635 292.203 114.779 291.874 116.796 291.132C118.812 290.389 120.658 289.248 122.226 287.775C123.727 286.264 124.904 284.461 125.686 282.477C126.467 280.493 126.836 278.37 126.77 276.238V268.265C123.115 274.275 117.414 277.275 109.668 277.264C104.213 277.378 98.9321 275.336 94.9643 271.579C92.9722 269.714 91.4002 267.444 90.3535 264.92C89.3067 262.397 88.8095 259.678 88.8949 256.946C88.8126 254.237 89.312 251.542 90.3592 249.043C91.4064 246.544 92.9769 244.301 94.9643 242.465C98.938 238.708 104.226 236.672 109.685 236.797C117.509 236.797 123.21 239.768 126.787 245.711V237.739H130.878L130.827 276.708ZM121.857 268.988C123.473 267.448 124.743 265.581 125.584 263.51C126.425 261.44 126.818 259.214 126.736 256.98C126.822 254.76 126.43 252.548 125.589 250.493C124.747 248.438 123.474 246.59 121.857 245.072C118.693 242.066 114.478 240.429 110.121 240.514C105.599 240.398 101.205 242.03 97.8482 245.072C96.1932 246.567 94.8852 248.409 94.0162 250.466C93.1472 252.523 92.7383 254.747 92.8183 256.98C92.7334 259.233 93.1395 261.478 94.0082 263.558C94.8769 265.638 96.1873 267.502 97.8482 269.022C101.193 272.087 105.592 273.733 110.121 273.614C112.285 273.66 114.437 273.275 116.451 272.481C118.466 271.687 120.303 270.5 121.857 268.988V268.988Z" fill="#3A3356"/>
<path d="M156.731 222.685C157.037 222.988 157.278 223.349 157.44 223.749C157.601 224.148 157.68 224.576 157.67 225.006C157.68 225.429 157.601 225.85 157.439 226.241C157.278 226.632 157.037 226.985 156.731 227.277C156.423 227.571 156.06 227.801 155.663 227.954C155.266 228.107 154.843 228.18 154.418 228.168C153.532 228.2 152.67 227.88 152.02 227.277C151.715 226.985 151.474 226.632 151.312 226.241C151.15 225.85 151.072 225.429 151.081 225.006C151.072 224.576 151.15 224.148 151.312 223.749C151.473 223.349 151.714 222.988 152.02 222.685C152.338 222.378 152.714 222.136 153.125 221.974C153.537 221.813 153.976 221.734 154.418 221.743C154.846 221.737 155.272 221.817 155.67 221.979C156.067 222.141 156.428 222.381 156.731 222.685V222.685ZM152.372 279.702V237.772H156.463V279.702H152.372Z" fill="#3A3356"/>
<path d="M200.575 277.297C197.988 279.42 194.763 280.605 191.421 280.661C189.764 280.74 188.108 280.482 186.552 279.904C184.997 279.326 183.573 278.44 182.367 277.297C181.2 276.045 180.301 274.566 179.724 272.952C179.147 271.338 178.906 269.623 179.014 267.912V241.371H169.859V237.772H179.014V223.98H183.205V237.772H198.848V241.371H183.205V267.609C183.128 268.831 183.296 270.056 183.699 271.212C184.102 272.367 184.733 273.43 185.553 274.337C186.359 275.151 187.326 275.788 188.391 276.208C189.456 276.628 190.596 276.821 191.739 276.776C194.427 276.753 197.014 275.748 199.016 273.95L200.575 277.297Z" fill="#3A3356"/>
<path d="M251.243 279.702H247.068V270.872C245.284 273.917 242.696 276.408 239.59 278.071C236.369 279.8 232.765 280.685 229.111 280.644C226.316 280.711 223.536 280.206 220.941 279.159C218.347 278.112 215.992 276.546 214.022 274.555C210.053 270.243 207.849 264.589 207.849 258.72C207.849 252.851 210.053 247.197 214.022 242.885C215.99 240.888 218.343 239.314 220.937 238.258C223.531 237.203 226.312 236.688 229.111 236.746C232.771 236.706 236.379 237.609 239.59 239.37C242.691 241.055 245.276 243.555 247.068 246.602V237.772H251.243V279.702ZM241.854 271.814C245.216 268.279 247.091 263.581 247.091 258.695C247.091 253.809 245.216 249.111 241.854 245.576C238.552 242.341 234.12 240.53 229.505 240.53C224.89 240.53 220.458 242.341 217.157 245.576C213.893 249.184 212.086 253.882 212.086 258.754C212.086 263.626 213.893 268.324 217.157 271.932C220.496 275.142 224.947 276.928 229.572 276.912C234.198 276.896 238.637 275.081 241.954 271.848L241.854 271.814Z" fill="#3A3356"/>
<path d="M271.933 279.702V217.976H276.124V279.702H271.933Z" fill="#3A3356"/>
<path d="M350.13 274.135C352.892 272.477 354.937 269.844 355.864 266.752L359.704 267.878C358.628 271.758 356.123 275.083 352.696 277.179C349.045 279.505 344.797 280.709 340.473 280.644C337.077 280.615 333.735 279.794 330.71 278.245C327.686 276.695 325.062 274.461 323.048 271.719C321.033 268.977 319.682 265.802 319.101 262.446C318.521 259.089 318.728 255.644 319.705 252.381C320.682 249.119 322.403 246.129 324.731 243.649C327.059 241.169 329.93 239.266 333.118 238.092C336.306 236.918 339.722 236.504 343.097 236.884C346.472 237.263 349.712 238.425 352.561 240.278C356.016 242.533 358.573 245.932 359.788 249.882L355.864 251.177C354.969 247.969 352.928 245.203 350.13 243.407C347.253 241.548 343.894 240.583 340.473 240.631C338.18 240.589 335.902 241.015 333.778 241.882C331.654 242.75 329.728 244.041 328.116 245.677C324.858 249.231 323.05 253.884 323.05 258.712C323.05 263.54 324.858 268.193 328.116 271.747C329.734 273.384 331.666 274.676 333.796 275.543C335.926 276.41 338.208 276.835 340.506 276.793C343.9 276.834 347.236 275.913 350.13 274.135V274.135Z" fill="#3A3356"/>
<path d="M410.036 243.053C414.1 247.25 416.372 252.87 416.372 258.72C416.372 264.571 414.1 270.191 410.036 274.387C405.813 278.405 400.214 280.644 394.393 280.644C388.573 280.644 382.974 278.405 378.75 274.387C374.695 270.187 372.428 264.568 372.428 258.72C372.428 252.873 374.695 247.254 378.75 243.053C382.984 239.055 388.579 236.828 394.393 236.828C400.208 236.828 405.803 239.055 410.036 243.053V243.053ZM407.086 271.646C410.396 268.125 412.24 263.468 412.24 258.628C412.24 253.788 410.396 249.131 407.086 245.61C403.655 242.325 399.094 240.492 394.352 240.492C389.609 240.492 385.048 242.325 381.618 245.61C378.311 249.133 376.469 253.789 376.469 258.628C376.469 263.467 378.311 268.123 381.618 271.646C385.012 274.968 389.567 276.828 394.31 276.828C399.052 276.828 403.607 274.968 407.002 271.646H407.086Z" fill="#3A3356"/>
<path d="M493.969 240.951C495.405 242.399 496.526 244.13 497.262 246.035C497.998 247.94 498.332 249.977 498.244 252.018V279.702H494.052V252.607C494.116 251.009 493.852 249.416 493.275 247.925C492.698 246.435 491.821 245.08 490.699 243.945C489.549 242.843 488.187 241.987 486.697 241.429C485.207 240.871 483.62 240.622 482.031 240.699C480.051 240.617 478.079 240.982 476.259 241.768C474.439 242.554 472.819 243.741 471.518 245.24C468.724 248.755 467.321 253.181 467.578 257.669V279.702H463.454V252.607C463.518 251.009 463.253 249.416 462.676 247.925C462.099 246.435 461.223 245.08 460.101 243.945C458.948 242.841 457.584 241.983 456.091 241.425C454.598 240.867 453.007 240.62 451.416 240.699C449.453 240.624 447.5 240.997 445.702 241.789C443.904 242.582 442.309 243.773 441.037 245.274C438.289 248.798 436.907 253.201 437.148 257.669V279.702H432.956V237.772H437.148V246.014C438.448 243.102 440.601 240.656 443.32 239.001C446.039 237.346 449.196 236.559 452.371 236.746C455.605 236.679 458.782 237.606 461.475 239.404C464.021 241.121 465.903 243.662 466.807 246.602C468.252 243.624 470.507 241.117 473.312 239.37C476.215 237.587 479.567 236.677 482.97 236.746C484.991 236.663 487.009 236.993 488.899 237.716C490.79 238.439 492.515 239.54 493.969 240.951V240.951Z" fill="#3A3356"/>
<path d="M579.007 240.951C580.443 242.399 581.565 244.13 582.3 246.035C583.036 247.94 583.371 249.977 583.282 252.018V279.702H579.141V252.606C579.205 251.009 578.94 249.416 578.364 247.925C577.787 246.435 576.91 245.08 575.788 243.945C574.638 242.843 573.276 241.987 571.786 241.429C570.296 240.871 568.708 240.622 567.12 240.699C565.14 240.616 563.168 240.982 561.348 241.768C559.528 242.554 557.908 243.741 556.607 245.24C553.812 248.754 552.409 253.181 552.667 257.669V279.702H548.476V252.606C548.54 251.009 548.275 249.416 547.698 247.925C547.121 246.435 546.244 245.08 545.122 243.945C543.97 242.84 542.606 241.983 541.113 241.425C539.62 240.867 538.029 240.62 536.437 240.699C534.475 240.624 532.522 240.997 530.724 241.789C528.926 242.581 527.331 243.773 526.059 245.273C523.311 248.797 521.929 253.201 522.169 257.669V279.702H517.978V237.772H522.169V246.013C523.257 243.903 524.771 242.042 526.614 240.55C528.457 239.058 530.589 237.966 532.876 237.344C535.162 236.723 537.552 236.585 539.894 236.939C542.236 237.294 544.479 238.133 546.48 239.403C549.032 241.118 550.92 243.659 551.829 246.602C553.274 243.624 555.529 241.117 558.334 239.37C561.267 237.589 564.649 236.696 568.075 236.797C570.082 236.716 572.085 237.043 573.963 237.757C575.841 238.47 577.557 239.557 579.007 240.951V240.951Z" fill="#3A3356"/>
<path d="M641.059 259.132H603.184C603.112 261.536 603.538 263.928 604.435 266.157C605.333 268.386 606.683 270.404 608.398 272.083C611.521 275.19 615.736 276.942 620.135 276.961C628.116 276.961 633.531 273.389 636.381 266.247L640.053 267.105C638.698 271.197 636.057 274.738 632.525 277.196C628.839 279.581 624.519 280.789 620.135 280.661C617.397 280.685 614.682 280.167 612.144 279.137C609.607 278.107 607.297 276.584 605.347 274.656C603.237 272.628 601.582 270.172 600.492 267.452C599.402 264.731 598.902 261.809 599.026 258.88C598.912 255.915 599.424 252.958 600.527 250.205C601.631 247.451 603.302 244.963 605.431 242.902C607.436 240.922 609.812 239.359 612.422 238.306C615.032 237.252 617.824 236.728 620.638 236.763C623.293 236.685 625.936 237.159 628.4 238.154C630.864 239.15 633.096 240.646 634.956 242.549C638.838 246.625 641.001 252.048 640.992 257.686L641.059 259.132ZM609.321 244.718C605.948 247.5 603.813 251.511 603.385 255.869H636.918C636.649 251.59 634.788 247.569 631.704 244.601C628.72 241.867 624.795 240.401 620.755 240.514C616.565 240.498 612.508 241.99 609.321 244.718V244.718Z" fill="#3A3356"/>
<path d="M682.589 237.688L682.17 241.64C681.35 241.507 680.519 241.451 679.689 241.472C677.2 241.363 674.722 241.845 672.455 242.88C670.188 243.914 668.197 245.472 666.645 247.426C663.401 251.653 661.724 256.879 661.9 262.21V279.702H657.725V237.772H661.9V249.545C663.532 246.05 666.018 243.025 669.126 240.749C672.194 238.516 675.899 237.337 679.689 237.385C680.663 237.386 681.635 237.488 682.589 237.688V237.688Z" fill="#3A3356"/>
<path d="M722.158 274.135C724.92 272.477 726.965 269.844 727.892 266.751L731.731 267.878C730.655 271.758 728.15 275.083 724.723 277.179C721.072 279.505 716.824 280.709 712.5 280.644C706.697 280.644 701.132 278.332 697.029 274.215C692.925 270.099 690.62 264.516 690.62 258.695C690.62 252.874 692.925 247.291 697.029 243.175C701.132 239.059 706.697 236.746 712.5 236.746C716.805 236.692 721.026 237.946 724.606 240.345C728.055 242.601 730.607 246 731.815 249.949L727.892 251.244C726.985 248.054 724.945 245.308 722.158 243.524C719.281 241.666 715.921 240.701 712.5 240.749C710.21 240.706 707.935 241.132 705.813 241.999C703.692 242.866 701.768 244.158 700.16 245.795C696.899 249.347 695.088 254 695.088 258.83C695.088 263.659 696.899 268.312 700.16 271.864C701.778 273.502 703.71 274.793 705.84 275.661C707.97 276.528 710.253 276.953 712.551 276.91C715.95 276.913 719.281 275.951 722.158 274.135Z" fill="#3A3356"/>
<path d="M786.423 259.132H748.565C748.488 261.536 748.912 263.93 749.81 266.16C750.708 268.389 752.06 270.407 753.779 272.083C756.895 275.201 761.114 276.955 765.515 276.961C773.496 276.961 778.912 273.389 781.762 266.247L785.434 267.105C784.085 271.196 781.449 274.737 777.922 277.196C774.229 279.578 769.905 280.786 765.515 280.661C762.69 280.669 759.891 280.107 757.287 279.007C754.683 277.908 752.326 276.294 750.356 274.262C748.386 272.229 746.845 269.82 745.823 267.178C744.8 264.535 744.319 261.713 744.407 258.88C744.296 255.914 744.81 252.957 745.917 250.203C747.024 247.45 748.697 244.962 750.828 242.902C752.833 240.922 755.209 239.359 757.819 238.306C760.429 237.252 763.222 236.728 766.035 236.763C768.69 236.687 771.332 237.162 773.796 238.157C776.26 239.153 778.492 240.648 780.354 242.549C784.243 246.619 786.402 252.048 786.373 257.686L786.423 259.132ZM754.668 244.718C751.295 247.5 749.16 251.511 748.732 255.87H782.265C781.988 251.593 780.128 247.574 777.051 244.601C774.065 241.87 770.141 240.405 766.102 240.514C761.913 240.506 757.859 241.997 754.668 244.718V244.718Z" fill="#3A3356"/>
<path d="M43.4582 143.484C45.5707 151.434 51.6401 155.415 61.6663 155.426C64.9521 155.605 68.2252 154.89 71.1393 153.357C72.1212 152.871 72.9523 152.125 73.5431 151.201C74.134 150.276 74.4623 149.207 74.4926 148.109C74.4926 144.376 70.7704 141.942 63.3262 140.81L38.7971 136.672C14.5195 132.288 2.38077 120.106 2.38077 100.124C2.19641 94.0277 3.51734 87.9797 6.22604 82.5188C8.93475 77.0579 12.9472 72.3534 17.9064 68.824C28.2679 61.1096 41.3847 57.2524 57.2568 57.2524C73.1289 57.2524 86.1619 60.2575 96.3558 66.2675C101.117 68.9712 105.289 72.6062 108.624 76.9572C111.959 81.3082 114.39 86.2865 115.771 91.5971L74.9788 99.6367C74.2904 96.2377 72.3356 93.2301 69.5129 91.2271C66.0582 88.6193 61.8117 87.2884 57.4915 87.4596C49.8797 87.4596 46.0905 89.8984 46.0905 94.7591C46.0905 98.0052 48.7563 100.209 54.1047 101.335L82.0206 106.936C94.1594 109.179 103.224 113.664 109.216 120.391C115.207 127.119 118.219 135.646 118.253 145.973C118.452 152.056 117.068 158.086 114.237 163.469C111.406 168.851 107.225 173.401 102.107 176.668C91.3427 183.968 77.544 187.623 60.7106 187.634C44.5144 187.634 30.9952 184.669 20.153 178.737C15.0189 176.09 10.5446 172.318 7.0617 167.7C3.5788 163.083 1.17668 157.738 0.0334473 152.062L43.4582 143.484Z" fill="url(#paint0_linear_406_2)"/>
<path d="M240.043 75.7702C253.389 87.9472 260.062 103.533 260.062 122.527C260.062 141.522 253.389 157.074 240.043 169.184C226.63 181.271 210.423 187.32 191.421 187.332C172.419 187.343 156.212 181.293 142.799 169.184C129.386 157.096 122.707 141.544 122.763 122.527C122.819 103.511 129.497 87.9248 142.799 75.7702C156.144 63.5819 172.352 57.4878 191.421 57.4878C210.49 57.4878 226.697 63.5819 240.043 75.7702ZM208.958 141.785C213.697 136.507 216.329 129.662 216.351 122.558C216.373 115.455 213.782 108.593 209.076 103.286C206.816 100.83 204.075 98.8706 201.023 97.5302C197.972 96.1897 194.677 95.4977 191.345 95.4977C188.014 95.4977 184.719 96.1897 181.667 97.5302C178.616 98.8706 175.874 100.83 173.615 103.286C168.765 108.492 166.151 115.404 166.338 122.527C166.249 126.069 166.858 129.593 168.13 132.898C169.402 136.202 171.311 139.223 173.749 141.785C175.983 144.239 178.702 146.199 181.733 147.54C184.765 148.881 188.041 149.573 191.354 149.573C194.666 149.573 197.943 148.881 200.974 147.54C204.005 146.199 206.724 144.239 208.958 141.785V141.785Z" fill="url(#paint1_linear_406_2)"/>
<path d="M398.065 137.564C395.762 152.006 387.945 164.982 376.269 173.742C364.186 182.99 349.33 187.847 334.135 187.517C315.19 187.517 299.122 181.422 285.932 169.234C272.743 157.046 266.143 141.455 266.131 122.46C266.131 103.298 272.732 87.6278 285.932 75.4507C299.133 63.2737 315.201 57.1851 334.135 57.1851C349.167 56.847 363.876 61.5858 375.9 70.6404C387.465 79.2808 395.27 92.0552 397.697 106.314L355.932 115.093C355.052 109.519 352.316 104.409 348.169 100.595C344.252 97.2346 339.238 95.4385 334.085 95.5496C330.787 95.4525 327.507 96.0899 324.484 97.416C321.46 98.7421 318.767 100.724 316.598 103.219C312.001 108.501 309.568 115.334 309.791 122.342C309.547 129.319 311.984 136.122 316.598 141.348C318.785 143.813 321.485 145.766 324.506 147.071C327.527 148.376 330.797 149 334.085 148.9C345.743 148.9 353.187 142.402 356.418 129.406L398.065 137.564Z" fill="url(#paint2_linear_406_2)"/>
<path d="M453.595 7.43402C458.242 12.0974 460.864 18.414 460.889 25.0075C460.914 31.6011 458.34 37.9376 453.729 42.6365C448.698 47.1821 442.167 49.6976 435.395 49.6976C428.624 49.6976 422.093 47.1821 417.062 42.6365C412.441 37.9198 409.862 31.5651 409.884 24.9522C409.906 18.3393 412.527 12.002 417.179 7.31628C419.554 4.91311 422.396 3.024 425.527 1.76562C428.659 0.507233 432.015 -0.0936885 435.387 -4.01916e-05C438.77 -0.0936475 442.135 0.518824 445.27 1.79854C448.404 3.07826 451.239 4.9973 453.595 7.43402V7.43402ZM412.803 183.917V60.9021H458.223V183.917H412.803Z" fill="url(#paint3_linear_406_2)"/>
<path d="M613.629 183.917H568.21V173.927C559.156 183.031 547.179 187.584 532.279 187.584C524.33 187.777 516.432 186.255 509.119 183.121C501.807 179.987 495.251 175.315 489.894 169.419C478.638 157.332 473.016 141.701 473.027 122.527C473.039 103.354 478.661 87.6557 489.894 75.4338C495.254 69.5439 501.812 64.8761 509.123 61.7454C516.435 58.6147 524.332 57.094 532.279 57.2859C547.168 57.2859 559.145 61.8327 568.21 70.9263V60.9357H613.629V183.917ZM560.933 141.785C565.794 136.579 568.409 129.658 568.21 122.527C568.436 115.327 565.821 108.328 560.933 103.051C558.702 100.561 555.967 98.5769 552.911 97.2312C549.855 95.8854 546.548 95.2089 543.211 95.2467C539.835 95.1131 536.471 95.7333 533.363 97.0625C530.254 98.3918 527.479 100.397 525.238 102.933C520.579 108.366 518.147 115.367 518.43 122.527C518.172 129.617 520.605 136.542 525.238 141.903C527.482 144.434 530.259 146.435 533.366 147.761C536.474 149.087 539.836 149.706 543.211 149.573C546.547 149.612 549.853 148.939 552.909 147.596C555.965 146.253 558.7 144.272 560.933 141.785V141.785Z" fill="url(#paint4_linear_406_2)"/>
<path d="M632.793 183.917V8.52734H678.196V183.917H632.793Z" fill="url(#paint5_linear_406_2)"/>
<path class="seta_animation" d="M788.72 177.307H774.921C774.316 177.299 773.739 177.053 773.313 176.622C772.886 176.191 772.645 175.61 772.641 175.003L772.758 128.482L716.189 185.229L690.52 184.96L759.781 115.463L713.171 115.581C712.872 115.583 712.576 115.526 712.3 115.413C712.023 115.3 711.772 115.133 711.56 114.922C711.348 114.711 711.179 114.46 711.065 114.183C710.95 113.907 710.891 113.61 710.891 113.311L710.79 99.4517C710.79 98.8435 711.03 98.2599 711.457 97.8283C711.884 97.3966 712.464 97.1519 713.07 97.1475H791.017V175.104C790.995 175.699 790.743 176.262 790.314 176.673C789.885 177.085 789.313 177.312 788.72 177.307V177.307Z" fill="url(#paint6_linear_406_2)"/>
</g>
<defs>
<linearGradient id="paint0_linear_406_2" x1="-62.5886" y1="143.905" x2="780.226" y2="-3.31962" gradientUnits="userSpaceOnUse">
<stop stop-color="#675FED"/>
<stop offset="1" stop-color="#9E99F3"/>
</linearGradient>
<linearGradient id="paint1_linear_406_2" x1="70089.2" y1="24224" x2="138853" y2="11482.6" gradientUnits="userSpaceOnUse">
<stop stop-color="#675FED"/>
<stop offset="1" stop-color="#9E99F3"/>
</linearGradient>
<linearGradient id="paint2_linear_406_2" x1="67832.1" y1="26206.9" x2="134094" y2="14456.1" gradientUnits="userSpaceOnUse">
<stop stop-color="#675FED"/>
<stop offset="1" stop-color="#9E99F3"/>
</linearGradient>
<linearGradient id="paint3_linear_406_2" x1="26475.1" y1="35740.6" x2="52834.6" y2="34459.9" gradientUnits="userSpaceOnUse">
<stop stop-color="#675FED"/>
<stop offset="1" stop-color="#9E99F3"/>
</linearGradient>
<linearGradient id="paint4_linear_406_2" x1="73042" y1="29182.2" x2="143365" y2="15888.3" gradientUnits="userSpaceOnUse">
<stop stop-color="#675FED"/>
<stop offset="1" stop-color="#9E99F3"/>
</linearGradient>
<linearGradient id="paint5_linear_406_2" x1="24024.1" y1="38257.6" x2="47495.7" y2="37192.8" gradientUnits="userSpaceOnUse">
<stop stop-color="#675FED"/>
<stop offset="1" stop-color="#9E99F3"/>
</linearGradient>
<linearGradient id="paint6_linear_406_2" x1="845.356" y1="18.7198" x2="639.77" y2="274.883" gradientUnits="userSpaceOnUse">
<stop stop-color="#FF5B6B"/>
<stop offset="1" stop-color="#B264AC"/>
</linearGradient>
<clipPath id="clip0_406_2">
<rect width="791" height="296" fill="white"/>
</clipPath>
</defs>
</svg>
